<svg xmlns="http://www.w3.org/2000/svg" width="237" height="100" viewBox="0 0 237 100" fill="none">
<path d="M33.3556 100H10.5333V24.5614H0V14.0351C7.75653 14.0351 14.0444 7.75136 14.0444 0H33.3556V100Z" fill="#13CB5C"/>
<path fill-rule="evenodd" clip-rule="evenodd" d="M149.867 0C176.999 0 199.076 21.3246 200.097 48.0657C200.145 48.6957 200.145 51.3559 200.097 51.984C199.076 78.6754 176.951 100 149.867 100C138.78 100 128.57 96.4208 120.256 90.3766C111.94 96.4207 101.68 99.9999 90.5946 100C63.5102 100 41.4348 78.6754 40.4138 51.984C40.3658 51.3561 40.3658 48.6953 40.4138 48.0674C41.4349 21.3264 63.4623 0.00171327 90.5946 0.00171327C101.681 0.00180175 111.942 3.57983 120.256 9.62342C128.57 3.57904 138.781 2.9517e-05 149.867 0ZM149.869 19.9716C143.984 19.9716 138.489 21.6142 133.87 24.5648C137.272 30.2238 139.559 36.6568 140.434 43.5238H120.06C118.358 35.4964 113.399 28.7254 106.592 24.5665C101.972 21.6159 96.4788 19.9733 90.5946 19.9733C74.5478 19.9733 61.4678 32.4 60.4947 48.0674C60.3968 48.6953 60.3968 51.3064 60.4947 51.984C61.4677 67.6515 74.5957 80.0302 90.5946 80.0302C96.4766 80.0301 101.972 78.3836 106.592 75.4352C103.237 69.7783 101 63.4426 100.125 56.6235H120.499C122.201 64.5536 127.16 71.2764 133.87 75.4352C138.489 78.3838 143.984 80.0284 149.869 80.0284C165.915 80.0284 179.043 67.6497 180.016 51.9823C180.114 51.3047 180.068 48.7752 180.016 48.0657C179.043 32.3982 165.963 19.9716 149.869 19.9716Z" fill="#13CB5C"/>
<path d="M237 100H214.178V24.5614H203.644V14.0351C211.401 14.0351 217.689 7.75136 217.689 0H237V100Z" fill="#13CB5C"/>
</svg>